{"title":"Wanted *2008*[BluRay][1080p][ENG, POL]","uid":5954255,"size":7932225014,"categoryP":"video","categoryS":"hd___movies","magnet":"?xt=urn:btih:cbc251213ad9435dbe88a9f25ad36b430513aa53&amp;dn=Wanted+%2A2008%2A%5BBluRay%5D%5B1080p%5D%5BENG%2C+POL%5D&amp;tr=udp%3A%2F%2Ftracker.openbittorrent.com%3A80&amp;tr=udp%3A%2F%2Fopen.demonii.com%3A1337&amp;tr=udp%3A%2F%2Ftracker.coppersurfer.tk%3A6969&amp;tr=udp%3A%2F%2Fexodus.desync.com%3A6969","seeders":0,"leechers":1,"uploader":"albedo040","files":1,"time":1289649430,"description":"Wanted *2008*[BluRay][1080p][ENG, POL]\n\nGeneral information:\nCountry: USA, Germany \nRelease: 12 June 2008\nGenre: Action, Crime, Thriller \nDirector: Timur Bekmambetov\nScreenplay: Michael Brandt, Derek Haas, Chris Morgan, Michael Brandt, Derek Haas, Mark Millar  (comic book series) and J.G. Jones   (comic book series)\nOriginal Music: Danny Elfman \nCinematography by: Mitchell Amundsen \nDuration:  1h 49mn\nLanguage: English, Polish\nSubtitles: English, Polish\nRating: 6.8/10 - 34419 votes \n\nCast:\nJames McAvoy  ...  Wesley  \nMorgan Freeman  ...  Sloan  \nAngelina Jolie  ...  Fox  \nTerence Stamp  ...  Pekwarsky  \nThomas Kretschmann  ...  Cross  \nCommon  ...  The Gunsmith  \nKristen Hager  ...  Cathy  \nMarc Warren  ...  The Repairman  \nDavid O'Hara  ...  Mr. X (as David Patrick O'Hara)  \nKonstantin Khabenskiy  ...  The Exterminator (as Konstantin Khabensky)  \nDato Bakhtadze  ...  The Butcher  \nChris Pratt  ...  Barry  \nLorna Scott  ...  Janice  \nSophiya Haque  ...  Puja  \nBrian Caspe  ...  The Pharmacist  \n\nPlot:\nA frustrated office worker learns that he is the son of a professional assassin, and that he shares his father's superhuman killing abilities. \n\nSpecifications:\nGeneral\nFormat                           : Matroska\nOverall bit rate                 : 9 625 Kbps\n\nVideo\nFormat                           : AVC\nFormat/Info                      : Advanced Video Codec\nFormat profile                   : &lt;a class=&quot;__cf_email__&quot; href=&quot;/cdn-cgi/l/email-protection&quot; data-cfemail=&quot;89c1e0eee1c9c5bda7b9&quot;&gt;[email&amp;#160;protected]&lt;/a&gt;&lt;script cf-hash='f9e31' type=&quot;text/javascript&quot;&gt;\n/* &lt;![CDATA[ */!function(){try{var t=&quot;currentScript&quot;in document?document.currentScript:function(){for(var t=document.getElementsByTagName(&quot;script&quot;),e=t.length;e--;)if(t[e].getAttribute(&quot;cf-hash&quot;))return t[e]}();if(t&amp;&amp;t.previousSibling){var e,r,n,i,c=t.previousSibling,a=c.getAttribute(&quot;data-cfemail&quot;);if(a){for(e=&quot;&quot;,r=parseInt(a.substr(0,2),16),n=2;a.length-n;n+=2)i=parseInt(a.substr(n,2),16)^r,e+=String.fromCharCode(i);e=document.createTextNode(e),c.parentNode.replaceChild(e,c)}}}catch(u){}}();/* ]]&gt; */&lt;/script&gt;\nFormat settings, CABAC           : Yes\nFormat settings, ReFrames        : 3 frames\nFormat settings, GOP             : M=4, N=29\nMuxing mode                      : Container profile=&lt;a class=&quot;__cf_email__&quot; href=&quot;/cdn-cgi/l/email-protection&quot; data-cfemail=&quot;3663585d5859415876021806&quot;&gt;[email&amp;#160;protected]&lt;/a&gt;&lt;script cf-hash='f9e31' type=&quot;text/javascript&quot;&gt;\n/* &lt;![CDATA[ */!function(){try{var t=&quot;currentScript&quot;in document?document.currentScript:function(){for(var t=document.getElementsByTagName(&quot;script&quot;),e=t.length;e--;)if(t[e].getAttribute(&quot;cf-hash&quot;))return t[e]}();if(t&amp;&amp;t.previousSibling){var e,r,n,i,c=t.previousSibling,a=c.getAttribute(&quot;data-cfemail&quot;);if(a){for(e=&quot;&quot;,r=parseInt(a.substr(0,2),16),n=2;a.length-n;n+=2)i=parseInt(a.substr(n,2),16)^r,e+=String.fromCharCode(i);e=document.createTextNode(e),c.parentNode.replaceChild(e,c)}}}catch(u){}}();/* ]]&gt; */&lt;/script&gt;\nCodec ID                         : V_MPEG4/ISO/AVC\nBit rate                         : 8 570 Kbps\nWidth                            : 1 920 pixels\nHeight                           : 1 080 pixels\nDisplay aspect ratio             : 16:9\nFrame rate                       : 23.976 fps\n\nAudio 1\nFormat                           : AC-3\nFormat/Info                      : Audio Coding 3\nMode extension                   : CM (complete main)\nCodec ID                         : A_AC3\nBit rate mode                    : Constant\nBit rate                         : 640 Kbps\nChannel(s)                       : 6 channels\nChannel positions                : Front: L C R, Side: L R, LFE\nSampling rate                    : 48.0 KHz\nStream size                      : 503 MiB (7%)\nTitle                            : English\n\nAudio 2\nFormat                           : AC-3\nFormat/Info                      : Audio Coding 3\nMode extension                   : CM (complete main)\nCodec ID                         : A_AC3\nBit rate mode                    : Constant\nBit rate                         : 448 Kbps\nChannel(s)                       : 6 channels\nChannel positions                : Front: L C R, Side: L R, LFE\nSampling rate                    : 48.0 KHz\nStream size                      : 352 MiB (5%)\nTitle                            : Polish\nLanguage                         : Polish\n\nText 1\nFormat                           : UTF-8\nCodec ID                         : S_TEXT/UTF8\nCodec ID/Info                    : UTF-8 Plain Text\nTitle                            : English\n\nText 2\nFormat                           : UTF-8\nCodec ID                         : S_TEXT/UTF8\nCodec ID/Info                    : UTF-8 Plain Text\nTitle                            : Polish\nLanguage                         : Polish\n","torrent":{"xt":"urn:btih:cbc251213ad9435dbe88a9f25ad36b430513aa53","amp;dn":"Wanted+%2A2008%2A%5BBluRay%5D%5B1080p%5D%5BENG%2C+POL%5D","amp;tr":["udp%3A%2F%2Ftracker.openbittorrent.com%3A80","udp%3A%2F%2Fopen.demonii.com%3A1337","udp%3A%2F%2Ftracker.coppersurfer.tk%3A6969","udp%3A%2F%2Fexodus.desync.com%3A6969"],"infoHash":"cbc251213ad9435dbe88a9f25ad36b430513aa53","infoHashBuffer":{"type":"Buffer","data":[203,194,81,33,58,217,67,93,190,136,169,242,90,211,107,67,5,19,170,83]},"announce":[],"urlList":[]}}